<?xml version="1.0" encoding="utf-8"?>
<!-- Generator: Adobe Illustrator 23.1.1, SVG Export Plug-In . SVG Version: 6.00 Build 0)  -->
<svg version="1.1" id="Layer_1" xmlns="http://www.w3.org/2000/svg" xmlns:xlink="http://www.w3.org/1999/xlink" x="0px" y="0px"
	 viewBox="0 0 180 93.6" style="enable-background:new 0 0 180 93.6;" xml:space="preserve">
<style type="text/css">
	.st0{fill:#927C55;}
	.st1{fill:#0C0C0C;}
	.st2{fill:#835533;}
</style>
<rect class="st0" width="180" height="93.6"/>
<g id="s4PZ7s.tif_1_">
	<g>
		<g>
			<path class="st1" d="M68.47,11.19c1.08,0,2.18,0.11,3.25-0.02c4.82-0.56,9.61,0.02,14.4,0.4c0.26,0.02,0.52,0.06,0.78,0.09
				c0.22,0.02,0.47,0.05,0.49-0.26c0.02-0.31-0.25-0.31-0.46-0.33c-0.34-0.03-0.68-0.04-1.02-0.25c8.03,0,16.07,0,24.1,0
				c-0.05,0.45-0.54,0.07-0.71,0.36c0.04,0.03,0.08,0.09,0.12,0.1c0.69,0.1,1.39,0.2,2.09,0.3c0.36,0.05,0.69,0.07,0.88-0.35
				c0.14-0.3,0.02-0.47-0.11-0.77c-0.48-1.09-0.43-2.29-0.11-3.43c0.2-0.7,0.64-0.33,0.79,0.04c0.31,0.78,0.56,0.6,1.08,0.16
				c0.84-0.72,2.1-0.59,2.92-0.49c2.29,0.29,7.27,0.7,9.51,0c-1.39,0-2.78,0-4.17,0c-1.4,0-2.81,0-4.21,0c0-0.05,0-0.1,0-0.15
				c1.05,0,2.11,0.01,3.16,0c4.44-0.03,8.88-0.03,13.32-0.1c0.99-0.02,1.42,0.34,1.59,1.27c0.67,3.53,2.04,6.87,2.93,10.34
				c0.45,1.77-0.63,3.12-0.89,4.69c-0.01,0.08-0.06,0.16-0.1,0.25c-0.72,1.88-0.74,1.94,1.19,2.69c1.11,0.43,1.35,1.08,0.96,2.12
				c-1.41,3.78-2.13,7.76-3.46,11.57c-0.49,1.41,0.16,2.21,1.63,1.8c2.35-0.65,4.78-0.48,7.15-0.86c0.58-0.09,1.24-0.19,1.8,0.15
				c0.21,0.13,0.8,0.1,0.3,0.65c-0.34,0.38,0.17,0.34,0.34,0.4c0.97,0.38,1.78-0.11,2.59-0.54c-0.05-0.41-0.55-0.21-0.75-0.68
				c1.75-0.35,3.45-0.29,5.14-0.02c0.52,0.08,0.68,0.68,0.77,1.15c0.78,3.99,1.85,7.9,2.9,11.83c0.3,1.13,0.07,2.05-1,2.71
				c-0.4,0.24-0.7,0.66-1.01,1.04c-0.37,0.45-0.39,0.83,0.05,1.36c3.97,4.79,4.72,10.03,2.37,15.83c-0.93,2.3-2.57,3.98-4,5.89
				c-1.47,1.96-3.3,3.51-5.31,4.73c-2.01,1.22-4.3,2.06-6.73,2.21c-4.27,0.27-8.09-0.98-11.69-3.26c-3.02-1.92-4.45-4.64-4.76-8.09
				c-0.04-0.44,0.08-1.15-0.73-0.82c-3.12,1.26-6.24,0.53-9.35,0.03c-10.2-1.65-20.46-2.15-30.77-1.76
				c-2.29,0.09-4.57,0.17-6.86,0.28c-0.69,0.03-0.92-0.25-0.95-0.91c-0.06-1.6-0.17-3.19-0.29-4.78c-0.03-0.34,0.23-0.9-0.39-0.95
				c-0.57-0.05-0.29,0.52-0.43,0.78c-1.53,2.84-3.51,5.18-6.59,6.47c-2.38,1-4.75,1.92-7.37,1.44c-2.15-0.4-4.21-1.05-5.7-2.84
				c-0.29-0.34-0.59-0.96-1.11-0.76c-0.42,0.16-0.24,0.78-0.26,1.19c-0.15,4.39-2.34,7.68-5.67,10.27
				c-4.61,3.58-9.68,4.05-15.16,2.23c-3.81-1.27-6.49-3.78-8.98-6.8c-1.3-1.58-2.71-3.11-3.62-4.9c-1.15-2.25-2.06-4.6-2.35-7.25
				c-0.21-1.94-0.36-3.87-0.41-5.82c-0.07-2.6,0.76-4.98,1.52-7.43c0.69-2.22,1.95-4.1,3.1-6.02c0.77-1.29,2.12-2.21,3.6-2.77
				c0.2-0.08,0.42-0.13,0.57-0.26c2.8-2.55,6.18-3.55,9.88-3.58c1.07-0.01,1.47-0.27,1.41-1.41c-0.1-1.89-0.03-3.78-0.02-5.67
				c0-0.32-0.16-0.73,0.29-0.92c0.47-0.2,0.55,0.22,0.79,0.46c0.77,0.78,1.22-0.2,1.81-0.38c0.67-0.2,0.55-0.52,0.15-0.98
				c-0.18-0.21-0.06-0.68-0.06-1.03c0.01-2.99,0.02-5.98,0.05-8.98c0.01-0.64-0.08-1.18-0.68-1.57c-0.73-0.47-0.69-1.37-1.04-2.05
				c-1.27-2.42-1.47-5.01-1.32-7.67c0.06-1.05,0.02-2.11,0.07-3.16c0.01-0.27,0.07-0.66,0.45-0.71c0.32-0.03,0.43,0.27,0.52,0.51
				c0.25,0.68,0.61,0.63,0.82,0.05c0.14-0.38,0.42-0.22,0.57-0.26c2.45-0.52,4.94-0.36,7.43-0.39c1.67-0.02,3.34,0,5.01-0.09
				c0.83-0.04,1.2,0.3,1.36,1.05c0.31,1.45,0.65,2.89,0.99,4.33c0.3,1.28,0.96,1.7,2.04,0.98c2.15-1.43,4.52-1.57,6.95-1.53
				c2.81,0.04,5.63-0.19,8.44,0.13c0.61,0.07,1.19,0.13,1.71,0.56c0.33,0.27,0.91,0.4,1.12-0.13c0.17-0.45-0.36-0.5-0.68-0.58
				c-2.63-0.69-5.3-0.84-7.99-0.6C68.46,10.87,68.46,11.03,68.47,11.19z M113.85,34.03c0-4.32,0-8.64,0-13.28
				c-0.71,0.98-1.23,1.67-1.72,2.38c-0.28,0.4-0.54,0.9-1.1,0.81c-1.76-0.28-2.42,1.11-3.33,2.12c-0.41,0.45-0.44,0.97-0.1,1.44
				c1.24,1.76,1.99,3.78,3.05,5.63c0.32,0.55,0.91,0.96,0.86,1.7c-1.06-0.08-1.69-0.74-2.16-1.61c-0.38-0.69-0.75-1.39-1.15-2.07
				c-1.42-2.39-2.86-4.77-4.27-7.17c-0.26-0.45-0.21-0.95,0.16-1.35c1.43-1.57,2.87-3.13,4.31-4.69c0.25-0.27,0.58-0.52,0.9-0.23
				c0.25,0.22,0.06,0.58-0.1,0.84c-0.21,0.33-0.4,0.78-0.71,0.93c-1.2,0.6-1.55,1.98-2.61,2.68c-0.25,0.17-0.41,0.4-0.2,0.64
				c0.27,0.3,0.46-0.03,0.62-0.19c0.47-0.46,0.91-0.95,1.38-1.41c1.02-0.98,1.73-2.27,3.13-2.85c0.63-0.26,2.03-0.43,0.57-1.56
				c-0.14-0.11-0.08-0.5-0.08-0.76c0.02-0.75,0.02-1.5,0.09-2.24c0.1-1.09-0.37-1.51-1.45-1.48c-1.85,0.06-3.7,0.06-5.54,0.06
				c-3.31-0.01-3.31-0.02-3.21,3.28c0,0.09,0.01,0.18,0,0.26c-0.03,0.5,0.12,0.86,0.68,0.94c0.95,0.14,0.8,0.64,0.35,1.18
				c-1.48,1.78-2.98,3.54-4.48,5.3c-0.2,0.23-0.48,0.45-0.81,0.35c-0.38-0.12-0.31-0.51-0.32-0.78c-0.03-1.58-0.01-3.17-0.01-4.75
				c0-0.42,0.09-0.84,0.54-0.95c0.51-0.13,0.71,0.31,0.8,0.68c0.18,0.76,0.66,0.57,1.12,0.4c0.62-0.23,0.98-0.69,1.03-1.35
				c0.01-0.07-0.11-0.2-0.2-0.23c-0.73-0.26-0.73-0.26-0.74-0.87c0-0.66-0.07-1.33,0.01-1.98c0.16-1.29-0.47-1.57-1.61-1.53
				c-1.93,0.07-3.87,0.02-5.81,0.04c-3.96,0.04-3.21-0.64-3.31,3.48c-0.02,0.72,0.28,1.08,1,1.05c1.17-0.05,1.5,0.6,1.49,1.66
				c-0.02,3.56,0.02,7.13,0.02,10.69c0,1.45-0.05,2.9-0.05,4.35c0,0.68-0.27,1.2-0.95,1.17c-1.49-0.08-1.56,0.77-1.53,1.92
				c0.09,2.98-0.3,2.58,2.61,2.63c1.98,0.03,3.96,0.01,5.94,0.04c0.26,0,0.71-0.21,0.75,0.24c0.05,0.47-0.4,0.49-0.75,0.51
				c-0.26,0.02-0.53,0-0.79,0c-2.37,0-4.75-0.01-7.12,0.01c-0.38,0-0.92-0.23-1.03,0.57c3.57,0.33,7.12,0.35,10.67,0.11
				c1.08-0.07,2.05-0.61,1.53-2.06c-0.42,0.04-0.39,0.84-0.89,0.59c-0.43-0.21-0.2-0.71-0.22-1.09c-0.03-0.53-0.06-1.07,0.02-1.58
				c0.2-1.26-0.23-1.92-1.57-1.89c-0.2,0.01-0.52-0.07-0.59-0.21c-0.51-0.95-0.75-2.02-0.51-3.03c0.25-1.04,0.96-1.88,1.96-2.38
				c0.14-0.07,0.45,0.11,0.54-0.16c0.36-1.1,0.95-0.49,1.12-0.03c0.62,1.68,1.96,2.96,2.54,4.67c0.25,0.72,0.13,1.17-0.59,1.26
				c-0.77,0.09-0.91,0.49-0.87,1.15c0.04,0.7,0.04,1.41-0.01,2.11c-0.06,0.93,0.36,1.23,1.26,1.21c2.33-0.05,4.66-0.05,7-0.03
				c0.57,0,1.19-0.12,1.77,0.19c-0.35,0.7-0.92,0.59-1.42,0.59c-2.16,0.01-4.31,0-6.47,0.02c-0.62,0-1.25-0.02-1.93,0.41
				c0.79,0.44,1.5,0.33,2.18,0.41c4.25,0.47,8.48-0.37,12.76-0.12c5.7,0.33,11.44,0.06,17.16,0.07c0.71,0,1.19-0.29,1.74-0.74
				c0.81-0.67,0.19-1.41,0.34-2.03c0.74-3,1.42-6.03,2.43-8.97c0.67-1.94,0.63-1.95-1.35-2.53c-0.16-0.05-0.29-0.17-0.44-0.25
				c-1.52-0.84-1.86-0.69-2.23,0.95c-0.55,2.43-1.91,4.24-4.1,5.45c-1.68,0.93-3.49,0.69-5.28,0.74c-0.91,0.02-1.27-0.4-1.27-1.27
				c0.01-1.63-0.02-3.26-0.01-4.89c0-0.42-0.16-0.96,0.34-1.19c0.61-0.29,0.49,0.65,0.97,0.64c0.22-0.3-0.15-0.97,0.56-0.98
				c0.5-0.01,0.78,0.33,1.05,0.7c0.24,0.31,0.2,0.67,0.24,1.01c0.32,2.41,0.32,2.41,2.77,2.49c0.04,0,0.08-0.02,0.06-0.01
				c0.71-4.37-0.05-8.81,0.9-13.14c0.07-0.31-0.11-0.54-0.4-0.58c-0.96-0.11-1.99-0.33-2.85,0.1c-0.74,0.36-0.32,1.27-0.39,1.94
				c-0.04,0.35,0.01,0.71-0.06,1.05c-0.23,1.16-1.26,0.89-2.01,1.03c-0.52,0.1-1.16,0-1.18-0.72c-0.04-1.54,0-3.08,0.01-4.62
				c0-0.28,0.09-0.52,0.4-0.61c0.23-0.07,0.41,0.01,0.59,0.17c1,0.96,1,0.96,2.38,0.42c-0.36-0.4-0.83-0.09-1.24-0.2
				c-0.26-0.07-0.53-0.11-0.51-0.46c0.01-0.31,0.24-0.32,0.46-0.31c1.66,0.03,3.27-0.04,4.83,0.91c1.6,0.98,2.14,2.56,2.88,4.05
				c0.28,0.56,0.43,1.16,1.43,0.96c-0.52,0.53-0.94,0.9-1.13,1.45c1.83,0.2,3.71-0.75,4.23-2.1c-0.37-0.29-0.82,0.39-1.24-0.16
				c0.33-0.46,0.92-0.79,0.66-1.62c-0.79-2.58-1.49-5.19-2.16-7.8c-0.28-1.07-0.85-1.44-1.96-1.43c-5.1,0.05-10.21,0-15.32,0.03
				c-1.22,0.01-2.84-0.55-3.54,0.23c-0.74,0.83-0.14,2.44-0.22,3.7c-0.05,0.7,0.13,1.01,0.92,1.04c1.74,0.06,1.93,0.31,1.94,2.04
				c0.02,5.15,0.04,10.3,0.03,15.45C116.76,33.77,116.73,33.77,113.85,34.03z M153.44,55.85c1.41,0.22,2.45,0.08,3.4-1.05
				c0.69-0.82-0.41-0.62-0.33-1.04c0.26-1.45-0.18-2.85-0.53-4.23c-0.56-2.2-1.42-4.33-1.69-6.61c-0.08-0.66-0.49-0.83-1-0.75
				c-1.23,0.18-2.67-0.6-3.63,0.83c-0.17,0.26-0.61,0.06-0.86-0.07c-1.07-0.54-2.26-0.7-3.4-0.94c-5.49-1.16-12.48,1.18-13.79,7.42
				c-0.67,3.19-0.1,6.16,2.02,8.77c1.82,2.24,4.49,3.13,6.9,4.41c2.58,1.37,5.21,2.59,7.61,4.31c1.64,1.17,2.25,2.7,2.1,4.5
				c-0.19,2.28-1.75,3.89-3.65,4.76c-2.55,1.17-5.3,0.9-7.99,0.1c-1.68-0.5-3.13-2.45-3.23-4.07c-0.06-0.95,0.78-0.93,1.13-1.39
				c0.28-0.37,0.77,0.18,1.01,0.53c0.85,1.23,1.99,1.89,3.49,1.78c-0.07,1.1-1.12,0.52-1.52,1.02c1.32,0.71,3.32,0.15,3.39-1.07
				c0.07-1.21,0.68-2.14,1.03-3.2c0.69-2.13-0.29-4.33-2.29-5.34c-1.49-0.75-3.05-0.89-4.62-0.71c-3.15,0.36-5.64,1.77-6.75,4.94
				c-1.29,3.68-0.28,7.22,2.67,9.94c2.81,2.6,6.12,3.69,9.81,4c0.74,0.06,1.55-0.13,2.32,0.34c-2.34,0.55-4.6,0.34-7.17,0.04
				c1.34,0.77,2.54,0.79,3.69,1c3.53,0.64,6.76-0.21,9.77-2.06c0.44-0.27,1.07-1.02,0.98-1.08c-0.84-0.53-0.17-0.81,0.15-1.05
				c2.14-1.59,3.8-3.53,4.91-6c2.52-5.58,1.45-11.91-3.47-15.78c-1.59-1.25-3.37-2.14-5.16-3.03c-2.32-1.15-4.71-2.18-6.83-3.72
				c-0.97-0.7-1.55-2.58-0.99-3.67c0.2-0.4,0.55-0.75,1.03-0.72c0.75,0.04,0.22,0.59,0.27,0.9c0.08,0.4,0.28,0.56,0.63,0.42
				c0.84-0.34,1.74-0.32,2.69-0.35c-0.47-1.12-1.59-0.74-2.38-1.29c1.08-0.41,1.98-0.28,2.87-0.06c2.92,0.72,4.54,2.91,5.89,5.34
				c0.51,0.91,0.75,2.31,1.59,2.63C154.96,55.11,153.92,55.41,153.44,55.85z M49.07,55.47c-0.06,0.56-0.93,0.37-0.81,0.96
				c0.09,0.45,0.58,0.29,0.9,0.3c1.01,0.06,1.82-0.6,2.71-0.91c0.36-0.13,0.48-0.79-0.19-0.94c-0.62-0.13-0.63-0.31-0.22-0.73
				c0.29-0.3,0.1-0.68,0.03-1c-0.68-3.52-1.84-6.92-2.81-10.36c-0.11-0.41-0.28-0.66-0.7-0.6c-1.21,0.17-2.57-0.5-3.59,0.71
				c-0.2,0.24-0.61,0.22-0.87,0.05c-0.77-0.51-1.68-0.5-2.52-0.66c-3.87-0.76-7.52-0.46-10.92,1.87c-1.1,0.75-1.91,1.73-2.92,2.54
				c-1.2,0.97-2.12,2.27-2.77,3.59c-1.34,2.76-2.65,5.54-2.81,8.78c-0.23,4.75-0.18,9.33,2.15,13.69c2.34,4.38,5.74,7.33,10.47,8.84
				c2.2,0.7,4.47,0.59,6.81,0.78c-0.52,0.55-1.1,0.49-1.65,0.5c-1.63,0.01-3.25-0.01-4.88,0.02c-0.29,0.01-0.74-0.25-0.86,0.29
				c-0.03,0.12-0.01,0.32,0.06,0.37c0.48,0.36,0.36-0.31,0.59-0.36c0.11-0.03,0.23,0.03,0.35,0.06c3.14,0.67,6.21,0.52,9.34-0.31
				c2.92-0.77,4.81-2.84,6.94-4.66c0.16-0.14,0.2-0.42,0.03-0.6c-0.15-0.16-0.34-0.03-0.44,0.1c-0.5,0.63-1.41,0.71-1.88,1.4
				c-0.23,0.34-0.69,0.83-1.07,0.41c-0.43-0.48,0.27-0.73,0.55-0.96c1.83-1.54,3.24-3.4,3.98-5.67c1.66-5.12,0.95-9.74-3.18-13.5
				c-1.97-1.79-4.32-2.57-7-2.11c-2.25,0.38-3.99,1.6-5.39,3.37c-1.95,2.47-1.15,6.48,1.5,7.71c0.54,0.25,1.59-0.13,1.56,0.71
				c-0.02,0.61-1.09,0.05-1.56,0.49c1.06,0.76,2.08,0.78,3.52,0.06c0.67-0.34,1.37-0.71,1.34-1.72c-0.46,0.18-0.81,0.36-1.19,0.45
				c-0.34,0.08-0.58-0.25-0.33-0.44c0.97-0.79,0.91-2.04,1.46-3.01c1.06-1.86,2.72-1.91,3.79-0.1c2.15,3.63,1.46,6.83-1.89,9.68
				c-3.69,3.14-8.45,1.79-10.54-1.94c-1.49-2.65-1.9-5.63-2.25-8.58c-0.46-3.85,0.15-7.64,1.34-11.3c0.55-1.71,1.57-3.23,2.96-4.44
				c0.19-0.17,0.46-0.4,0.7-0.22c0.32,0.25,0.08,0.56-0.09,0.8c-0.18,0.24-0.41,0.45-0.58,0.7c-0.18,0.25-0.31,0.53-0.46,0.8
				c0.07,0.09,0.13,0.18,0.2,0.27c1.44-1.47,3.14-2.25,5.37-2.07c-0.76-0.93-1.8-0.87-2.49-1.54c1.84-0.19,3.53-0.21,4.97,1.01
				c2.02,1.72,3.28,3.93,4.09,6.4C48.13,55.09,48.42,55.46,49.07,55.47z M97.13,69.63c2.55,0.15,5.09,0.31,7.64,0.44
				c0.52,0.03,1.05-0.05,1.57-0.12c0.36-0.04,0.72-0.2,0.71-0.62c0-0.46-0.41-0.57-0.75-0.52c-1.18,0.16-1.2-0.53-1.15-1.4
				c0.05-0.83-0.05-1.66,0.58-2.36c0.21-0.23,0.28-0.66-0.21-0.66c-1.92,0.01-1.73-1.37-1.73-2.59c-0.03-3.87-0.03-7.74-0.03-11.61
				c0-0.61,0.03-1.23,0.1-1.84c0.04-0.39,0.13-0.86,0.62-0.89c0.56-0.04,0.4,0.48,0.44,0.78c0.07,0.51,0.41,0.71,0.82,0.66
				c0.5-0.05,1.04-0.09,1.3-0.7c0.21-0.5,0.05-0.67-0.41-0.86c-0.44-0.17-0.38-0.63-0.37-1.04c0.03-0.75,0.02-1.5,0.08-2.24
				c0.06-0.8-0.25-1.09-1.06-1.08c-2.33,0.04-4.66,0.01-7,0.01c-2.05,0-2.11-0.01-2.51,1.93c-0.65,3.2-2.11,6.19-2.38,9.49
				c-0.03,0.39-0.11,1.01-0.61,1.06c-0.66,0.07-0.67-0.64-0.76-1.04c-0.75-3.45-1.55-6.89-2.49-10.3c-0.23-0.85-0.59-1.21-1.53-1.17
				c-1.98,0.08-3.96,0.03-5.94,0.03c-2.88,0-2.86,0-2.77,2.88c0.03,1.01,0.47,1.47,1.43,1.36c0.77-0.1,1.06,0.3,1.15,0.92
				c0.08,0.52,0.1,1.05,0.1,1.58c-0.02,3.76-0.12,7.53-0.07,11.29c0.03,2.43,0.04,2.25-2.12,3.2c-1.25,0.55-0.25,2.07-0.44,3.13
				c-0.08,0.48-0.04,1.23,0.77,1.23c0.78,0,1.55,0.04,2.34-0.13c1.47-0.31,2.95-0.05,4.44,0.12c-2.6,0.42-5.26,0.19-7.8,0.98
				c0.32,0.42,0.79,0.33,1.21,0.32c2.48-0.09,4.96-0.15,7.43-0.32c1.86-0.13,1.86-0.19,1.5-2.04c-0.08-0.41-0.19-0.8-0.33-1.38
				c-0.32,0.87-0.55,1.65-1.63,1.67c0.15-1.1-0.44-2.21,0.64-3.17c0.42-0.38-0.18-0.65-0.58-0.69c-1.18-0.11-1.48-0.84-1.46-1.89
				c0.03-2.33,0.01-4.66,0.01-7.07c1.05,0.34,1.29,1.22,1.57,2.04c1.06,3.11,1.58,6.37,2.39,9.54c0.17,0.66,0.31,1.25,1.12,1.45
				c0.53,0.13,1.47-0.57,1.51,0.32c0.03,0.65-1.07,0.5-1.64,0.77c-0.12,0.06-0.24,0.1-0.37,0.16c2.92,1.04,4.57,0.15,4.29-2.42
				c-0.36,0.36-0.37,1.03-0.94,1.07c-0.23-0.27-0.11-0.47-0.06-0.68c0.66-2.98,1.9-5.81,2.26-8.88c0.17-1.48,0.73-2.97,2.12-4.21
				c0,2.97,0.01,5.71,0,8.46c0,0.76-0.15,1.46-1.17,1.32c-1.06-0.14-1.29,0.44-1.24,1.33c0.03,0.53,0.05,1.06,0.02,1.58
				c-0.05,0.9,0.36,1.22,1.25,1.25c2.42,0.08,4.83,0.23,7.24,0.38c0.31,0.02,0.82-0.01,0.84,0.4c0.02,0.51-0.46,0.57-0.87,0.55
				c-1.27-0.06-2.54-0.14-3.81-0.2C99.29,69.16,98.16,68.79,97.13,69.63z M74.42,16.23c0.05,0.14,0.09,0.22,0.09,0.3
				c0,0.41-0.56,1,0.3,1.13c0.8,0.12,1.41-0.37,1.65-1.05c0.33-0.96-0.52-0.3-0.79-0.45c-0.27-0.14-0.22-0.29-0.2-0.52
				c0.06-0.52,0.03-1.05,0.1-1.57c0.16-1.15-0.31-1.54-1.46-1.53c-3.72,0.05-7.44-0.04-11.16,0.02c-5.13,0.08-8.57,5.77-6.29,10.3
				c1,1.99,2.82,2.68,4.89,3.03c-0.46,0.58-1.1,0.64-1.71,0.93c3.64,0.26,4.6-0.16,4.51-1.94c-0.5,0.37-1,0.72-1.65,0.38
				c0.02-0.11,0.01-0.22,0.06-0.26c1.34-0.95,1.71-2.3,1.44-3.82c-0.31-1.74-1.47-2.46-3.19-2.49c-0.47-0.01-0.79-0.5-0.38-0.8
				c0.39-0.29,0.78-1.27,1.57-0.37c0.25,0.28,0.77,0.29,1.17,0.06c-0.01-0.49-0.81-0.37-0.59-0.97c0.29,0,0.6,0,0.9,0
				c1.94-0.04,2.41,0.41,2.41,2.37c0,1.41-0.06,2.83-0.06,4.24c0,2.9-0.03,5.81,0.07,8.7c0.06,1.83,0.59,3.58,1.93,4.91
				c1.26,1.25,2.94,1.76,4.63,2.24c1.72,0.49,3.49,0.26,5.24,0.43c-1.74,0.98-3.7,0.44-5.6,0.83c2.76,1.59,10.54,0.44,11.91-3.38
				c-0.88,0.23-1.39,1.39-2.59,0.95c2.48-2.31,2.99-5.19,2.93-8.32c-0.07-3.95-0.03-7.91,0.01-11.87c0.01-1.29,0.34-1.55,1.63-1.55
				c-0.02,0.08-0.02,0.16-0.05,0.22c-0.24,0.41-0.69,0.9-0.05,1.22c0.66,0.32,0.85-0.2,0.98-0.8c0.28-1.31-0.26-2.55-0.21-3.84
				c0.02-0.5-0.61-0.38-0.98-0.38c-1.93-0.01-3.85-0.02-5.78,0c-1.85,0.01-1.86,0.02-1.84,1.86c0.01,0.6-0.28,1.41,0.69,1.54
				c1.44,0.19,1.8,1.13,1.89,2.37c0.29,4.09-0.04,8.17-0.09,12.26c-0.01,0.56-0.15,1.14-0.32,1.68c-0.63,2.01-2.69,3.1-4.67,2.36
				c-1.05-0.39-2.18-0.77-2.43-2.24c-0.81-4.72-0.29-9.47-0.3-14.2C73.01,17.48,73.13,16.29,74.42,16.23z M109.62,70.2
				c0.31,0.45,0.63,0.43,0.92,0.48c1.74,0.24,3.47,0.5,5.21,0.72c3.22,0.4,6.44,0.81,9.7,0.62c2.1-0.12,2.54-0.51,3-2.2
				c-0.44-0.33-0.78,0.45-1.42,0.04c0.96-0.58,1.52-1.39,2.04-2.23c0.57-0.93,0.58-2,0.7-3.01c0.24-1.94-0.06-3.86-1.04-5.58
				c-0.46-0.82-1.21-1.47-1.82-2.21c-0.21-0.26-0.55-0.53-0.1-0.87c0.71-0.55,1.02-1.4,1.49-2.12c1.61-2.5,0.97-7.46-1.29-9.09
				c-1.48-1.07-3.19-1.79-5.14-1.76c-3.12,0.05-6.25,0.01-9.37,0.01c-3.18,0-3.14,0-3.13,3.12c0,0.8,0.25,1.09,1.01,1.13
				c0.55,0.03,1.15,0.03,1.18,0.88c0.14,5.05,0.3,10.11,0.14,15.16c-0.01,0.26-0.11,0.52-0.13,0.78c-0.03,0.56-0.35,0.83-0.86,0.72
				c-1.2-0.26-1.45,0.32-1.33,1.36c0.07,0.61,0.06,1.24,0,1.84c-0.08,0.74,0.23,0.98,0.92,1.06c2.92,0.34,5.84,0.67,8.74,1.1
				c2,0.29,3.99,0.57,6.03,0.67c-0.52,0.54-1.13,0.66-1.79,0.72c-1.81,0.18-3.58-0.09-5.36-0.41
				C115.21,70.65,112.52,69.99,109.62,70.2z M65.14,70.7c-1.26,0.9-2.63,0.68-3.97,1.2c5.29,1.1,11.6-1.93,12.37-4.57
				c-1.64-0.13-2.28,1.87-3.89,1.78c0.78-0.42,1.19-1.23,1.9-1.7c2.09-1.36,3.2-3.5,3.93-5.68c1.2-3.58,1.37-7.25,0.2-10.98
				c-1.31-4.19-3.97-6.88-8.14-7.99c-4.57-1.21-9.99,1.37-12.17,6.46c-2.53,5.92-2.42,11.67,0.34,17.36
				c0.57,1.18,1.64,2.25,2.99,2.98C60.68,70.63,62.77,70.72,65.14,70.7z M59.42,39.31c-0.15,0.59-0.45,0.68-0.75,0.74
				c-0.26,0.05-0.52,0.04-0.79,0.05c-5.47,0.14-10.95-0.41-16.41,0.34c-0.15,0.02-0.34-0.07-0.48-0.16
				c-0.15-0.1-0.19-0.28-0.09-0.46c0.11,0.08,0.22,0.16,0.33,0.23c1.24,0.79,2.59,0.76,3.98,0.61c0.61-0.07,1.24-0.08,1.84,0.02
				c3.62,0.6,7.27,0.46,10.91,0.63c0.75,0.03,1.62,0.32,2.21,0.02c0.68-0.35,0.14-1.33,0.32-2.02c0.76-3,1.43-6.02,2.21-9.02
				c0.22-0.85,0.15-1.27-0.81-1.29c-0.35-0.01-0.7-0.1-1.04-0.18c-1.87-0.46-1.88-0.47-2.75,1.24c-1.2,2.33-3.08,3.47-5.71,3.48
				c-1.01,0-1.4-0.27-1.39-1.34c0.04-5.72,0.02-11.44,0.02-17.16c0-0.53-0.08-1.17,0.56-1.33c0.63-0.15,0.6,0.55,0.72,0.9
				c0.27,0.84,0.93,0.42,1.41,0.52c0.71,0.15,0.82-0.55,1.09-0.92c0.37-0.5-0.18-0.65-0.51-0.82c-0.41-0.22-0.3-0.6-0.3-0.93
				c-0.01-0.88-0.07-1.77,0-2.64c0.1-1.09-0.29-1.49-1.4-1.46c-2.42,0.07-4.84,0.02-7.26,0.02c-3.92,0-3.9,0-3.7,3.88
				c0.04,0.7,0.23,1.14,0.97,1.06c1.28-0.15,1.68,0.42,1.71,1.64c0.02,0.87,0.12,1.75,0.12,2.62c0,4.71,0,9.42-0.01,14.12
				c0,0.44-0.07,0.87-0.11,1.31c-0.05,0.56-0.34,0.95-0.91,0.91c-1.77-0.12-1.86,0.98-1.76,2.29c0.05,0.61,0.03,1.23,0.01,1.85
				c-0.03,0.87,0.32,1.27,1.25,1.25c2.02-0.04,4.05,0.01,6.07,0.01C52.4,39.31,55.87,39.31,59.42,39.31z M106.44,63.44
				c0.59,0.67,1.08,1.01,1.95,0.59c0.74-0.35,1-0.68,0.96-1.55c-0.11-2.33-0.03-4.66-0.03-6.99c0-2.55-0.01-2.51-2.54-2.45
				c-1.06,0.02-1.36,0.48-1.34,1.45c0.05,2.07,0.03,4.13,0.05,6.2c0.01,2.01,0.01,2.01,2.07,2.1c0.18,0.01,0.45-0.09,0.5,0.27
				C107.64,63.5,107.05,63.12,106.44,63.44z M75.31,27.79c-0.04,0-0.07,0-0.11,0c0,0.62,0,1.23,0,1.85c0,0.62-0.01,1.23,0.02,1.85
				c0.08,1.29,2.01,2.46,3.15,1.9c0.21-0.1,0.5-0.21,0.51-0.54c0.1-2.37,0.23-4.74,0.31-7.1c0.09-2.86,0.07-2.83-2.83-2.75
				c-0.74,0.02-1.06,0.28-1.06,0.98C75.3,25.24,75.31,26.51,75.31,27.79z M86.42,22.98c-0.35,3.85-0.02,7.47-0.14,11.07
				c-0.07,2.14,0.03,4.28-0.97,6.26c-0.19,0.37-0.37,0.71,0.08,1.03c0.25,0.18,0.46,0.43,0.81,0.31c0.46-0.15,0.51-0.52,0.51-0.94
				c-0.01-1.58,0.07-3.16-0.01-4.74c-0.04-0.87,0.2-1.33,1.01-1.67c0.54-0.23,1.51-0.48,1.44-1.06c-0.3-2.58,0.05-5.14-0.06-7.71
				c-0.04-0.97,0.09-2-1.45-1.64C87.11,24.01,87,23.4,86.42,22.98z M43.89,56.17c0.39,0.02,0.79,0.04,1.18,0.06
				c0.49,0.03,1.12,0.07,1.32-0.36c0.18-0.41-0.24-0.9-0.57-1.24c-1.29-1.33-2.8-2.34-4.73-1.84c-1.77,0.46-3.04,1.64-3.55,3.47
				c-0.1,0.34-0.5,0.75-0.12,1.08c0.38,0.33,0.89,0.31,1.36,0.07c0.27-0.14,0.56-0.25,0.83-0.39
				C40.94,56.28,42.36,55.96,43.89,56.17z M80.07,57.68c0-1.28,0.01-2.55,0-3.83c-0.01-1.09-0.88-0.75-1.46-0.82
				c-0.87-0.11-0.59,0.55-0.55,0.98c0.11,1.05,0.35,2.09,0.37,3.14c0.02,1.31,0.42,2.63-0.42,3.93c-0.54,0.83,0.93,2.42,1.91,2.22
				c0.28-0.06,0.83-1.51,0.68-1.5c-0.99,0.01-0.48-0.72-0.51-1.08C80.02,59.71,80.07,58.69,80.07,57.68z M54.48,21.97
				c-0.31,3.03-0.29,5.69-0.13,8.36c0.04,0.71,0.38,0.98,0.91,1.02c0.57,0.04,0.77-0.29,0.55-0.91c-0.06-0.17,0.29-0.51,0.47-0.75
				c0.26-0.34,0.36-0.72,0.18-1.11C55.53,26.58,55.36,24.34,54.48,21.97z M53.15,50.48c0.35-0.61,1.09-0.88,0.8-1.31
				c-0.52-0.78,0.05-1.23,0.32-1.75c0.33-0.64,1.36-1.26,1.02-1.82c-0.42-0.68-1.53-0.22-2.33-0.31c-0.09-0.01-0.18,0.01-0.26,0.01
				c-0.97-0.07-1.11,0.45-0.85,1.23C52.25,47.76,52.66,48.99,53.15,50.48z M36.46,70.66c0.24,1.48,0.18,3.13,2.17,3.42
				c0.12,0.02,0.3,0.11,0.32,0.19c0.28,1.12,1.11,0.69,1.78,0.63c0.97-0.09,1.49-0.87,2.17-1.48C39.9,74.47,38.12,72.8,36.46,70.66z
				 M76.61,45.45c-1.38,0.01-1.51,0.19-0.94,1.33c0.29,0.58,0.73,1.09,0.99,1.69c0.23,0.53,1.1,1.07,0.15,1.76
				c-0.06,0.04,0.29,0.84,0.6,1.11c0.27,0.24,0.79,0.2,1.08-0.13c0.39-0.46-0.23-0.52-0.38-0.77c-0.29-0.47-0.28-1-0.32-1.51
				c-0.06-0.78-0.07-1.57-0.06-2.35C77.73,45.72,77.47,45.22,76.61,45.45z M146.06,73.82c0.03-0.86-0.15-1.46-0.73-1.64
				c-0.56-0.17-0.69,0.51-0.99,0.84c-0.24,0.25-0.4,0.57-0.64,0.82c-0.3,0.32-0.83,0.79-0.6,1.04c0.38,0.43,1.03,0.73,1.61,0.84
				c0.43,0.08,0.92-0.28,1.1-0.75C145.96,74.52,146.01,74.04,146.06,73.82z M93.53,46.17c-0.03-0.23,0.19-0.67-0.29-0.8
				c-0.42-0.11-0.88-0.13-1.27,0.12c-0.39,0.25-0.15,0.62-0.13,0.95c0.04,0.84,1.05,1.71-0.04,2.54c-0.02,0.01,0.08,0.25,0.17,0.31
				c0.27,0.15,0.38,0.71,0.82,0.41c0.48-0.33,0.98-0.84,0.77-1.39C93.29,47.58,93.54,46.94,93.53,46.17z M65.14,37.19
				c-0.8,0.96-0.62,2.03-0.81,2.99c-0.13,0.64,0.6,0.77,0.91,1.17c0.2,0.25,0.47,0.05,0.66-0.16c0.36-0.4,0.42-0.76,0.17-1.29
				C65.68,39.07,65.46,38.17,65.14,37.19z M131.3,46.61c-0.43-0.38,0.05-0.99-0.42-1.22c-0.24-0.12-0.66-0.12-0.88,0.02
				c-0.63,0.37,0.21,0.88-0.02,1.26c-0.26,0.41-0.48,0.88,0.13,0.93C130.61,47.64,131.01,47.09,131.3,46.61z M81.09,10.6
				c-0.31,0-0.61-0.01-0.92,0c-0.36,0.02-0.77,0.11-0.73,0.55c0.03,0.43,0.45,0.31,0.74,0.29c0.48-0.02,0.96-0.06,1.44-0.13
				c0.31-0.04,0.83,0.18,0.84-0.31c0.01-0.43-0.5-0.39-0.84-0.41C81.44,10.59,81.26,10.6,81.09,10.6z M74.34,66.78
				c-0.07-0.06-0.16-0.2-0.23-0.2c-0.28,0.03-0.45,0.22-0.51,0.48c-0.01,0.06,0.14,0.23,0.2,0.22
				C74.09,67.26,74.25,67.07,74.34,66.78z M137.71,19.04c-0.02,0.03-0.05,0.07-0.04,0.09c0.05,0.13,0.12,0.13,0.18,0
				c0.01-0.02-0.02-0.07-0.04-0.09C137.78,19.03,137.74,19.04,137.71,19.04z M74.42,66.3c-0.05,0.03-0.1,0.06-0.16,0.08
				c0.03,0.03,0.06,0.08,0.08,0.07c0.06-0.01,0.11-0.05,0.16-0.07C74.48,66.35,74.45,66.33,74.42,66.3z M128.61,69.51
				c-0.03-0.03-0.06-0.06-0.09-0.09c-0.03,0.05-0.07,0.1-0.08,0.16c0,0.02,0.05,0.05,0.08,0.08
				C128.55,69.61,128.58,69.56,128.61,69.51z"/>
			<path class="st2" d="M113.85,34.03c2.88-0.26,2.91-0.26,2.92-3.2c0.01-5.15-0.01-10.3-0.03-15.45c-0.01-1.73-0.2-1.98-1.94-2.04
				c-0.79-0.03-0.97-0.34-0.92-1.04c0.09-1.26-0.51-2.87,0.22-3.7c0.7-0.78,2.32-0.23,3.54-0.23c5.11-0.03,10.21,0.01,15.32-0.03
				c1.1-0.01,1.68,0.36,1.96,1.43c0.68,2.61,1.37,5.22,2.16,7.8c0.25,0.83-0.34,1.16-0.66,1.62c0.42,0.55,0.87-0.13,1.24,0.16
				c-0.52,1.35-2.4,2.3-4.23,2.1c0.19-0.55,0.6-0.92,1.13-1.45c-1,0.2-1.15-0.4-1.43-0.96c-0.74-1.49-1.29-3.07-2.88-4.05
				c-1.55-0.95-3.17-0.88-4.83-0.91c-0.22,0-0.45,0.01-0.46,0.31c-0.02,0.36,0.25,0.39,0.51,0.46c0.4,0.11,0.87-0.21,1.24,0.2
				c-1.38,0.54-1.39,0.54-2.38-0.42c-0.17-0.17-0.35-0.25-0.59-0.17c-0.3,0.09-0.39,0.34-0.4,0.61c-0.01,1.54-0.05,3.08-0.01,4.62
				c0.02,0.72,0.66,0.82,1.18,0.72c0.75-0.15,1.78,0.12,2.01-1.03c0.07-0.34,0.02-0.7,0.06-1.05c0.07-0.67-0.36-1.58,0.39-1.94
				c0.87-0.42,1.9-0.2,2.85-0.1c0.29,0.03,0.47,0.27,0.4,0.58c-0.95,4.33-0.2,8.77-0.9,13.14c0.03-0.01-0.01,0.02-0.06,0.01
				c-2.45-0.08-2.45-0.08-2.77-2.49c-0.05-0.34-0.01-0.7-0.24-1.01c-0.28-0.36-0.56-0.71-1.05-0.7c-0.71,0.01-0.34,0.68-0.56,0.98
				c-0.48,0-0.36-0.93-0.97-0.64c-0.49,0.24-0.33,0.77-0.34,1.19c-0.01,1.63,0.02,3.26,0.01,4.89c0,0.87,0.36,1.3,1.27,1.27
				c1.79-0.05,3.6,0.19,5.28-0.74c2.19-1.21,3.55-3.02,4.1-5.45c0.37-1.64,0.72-1.78,2.23-0.95c0.15,0.08,0.28,0.21,0.44,0.25
				c1.98,0.58,2.02,0.59,1.35,2.53c-1.01,2.94-1.69,5.96-2.43,8.97c-0.15,0.62,0.47,1.36-0.34,2.03c-0.54,0.45-1.03,0.74-1.74,0.74
				c-5.72,0-11.46,0.26-17.16-0.07c-4.28-0.25-8.51,0.59-12.76,0.12c-0.68-0.08-1.4,0.03-2.18-0.41c0.68-0.43,1.31-0.41,1.93-0.41
				c2.16-0.01,4.31-0.01,6.47-0.02c0.5,0,1.07,0.11,1.42-0.59c-0.58-0.31-1.19-0.19-1.77-0.19c-2.33-0.02-4.67-0.02-7,0.03
				c-0.9,0.02-1.32-0.28-1.26-1.21c0.04-0.7,0.04-1.41,0.01-2.11c-0.04-0.66,0.1-1.05,0.87-1.15c0.72-0.09,0.84-0.54,0.59-1.26
				c-0.58-1.71-1.91-2.98-2.54-4.67c-0.17-0.46-0.77-1.07-1.12,0.03c-0.09,0.27-0.4,0.09-0.54,0.16c-1,0.49-1.71,1.34-1.96,2.38
				c-0.24,1.02-0.01,2.09,0.51,3.03c0.08,0.14,0.39,0.21,0.59,0.21c1.34-0.03,1.77,0.63,1.57,1.89c-0.08,0.52-0.05,1.06-0.02,1.58
				c0.02,0.37-0.22,0.88,0.22,1.09c0.51,0.25,0.48-0.55,0.89-0.59c0.52,1.45-0.45,1.98-1.53,2.06c-3.55,0.24-7.1,0.22-10.67-0.11
				c0.11-0.8,0.65-0.57,1.03-0.57c2.37-0.02,4.75-0.01,7.12-0.01c0.26,0,0.53,0.01,0.79,0c0.35-0.02,0.8-0.04,0.75-0.51
				c-0.04-0.45-0.49-0.24-0.75-0.24c-1.98-0.03-3.96,0-5.94-0.04c-2.91-0.05-2.52,0.35-2.61-2.63c-0.04-1.14,0.04-2,1.53-1.92
				c0.68,0.04,0.95-0.49,0.95-1.17c0-1.45,0.05-2.9,0.05-4.35c0-3.56-0.04-7.13-0.02-10.69c0-1.06-0.32-1.71-1.49-1.66
				c-0.72,0.03-1.02-0.32-1-1.05c0.1-4.12-0.65-3.44,3.31-3.48c1.94-0.02,3.87,0.03,5.81-0.04c1.14-0.04,1.77,0.24,1.61,1.53
				c-0.08,0.65-0.02,1.32-0.01,1.98c0,0.62,0.01,0.61,0.74,0.87c0.09,0.03,0.2,0.15,0.2,0.23c-0.05,0.66-0.41,1.12-1.03,1.35
				c-0.46,0.17-0.94,0.36-1.12-0.4c-0.09-0.37-0.29-0.81-0.8-0.68c-0.45,0.11-0.54,0.53-0.54,0.95c0,1.58-0.01,3.17,0.01,4.75
				c0,0.27-0.06,0.67,0.32,0.78c0.33,0.1,0.61-0.11,0.81-0.35c1.5-1.76,3-3.52,4.48-5.3c0.45-0.54,0.59-1.04-0.35-1.18
				c-0.56-0.08-0.71-0.44-0.68-0.94c0.01-0.09,0-0.18,0-0.26c-0.1-3.3-0.1-3.29,3.21-3.28c1.85,0.01,3.7,0.01,5.54-0.06
				c1.08-0.04,1.55,0.38,1.45,1.48c-0.07,0.74-0.07,1.49-0.09,2.24c-0.01,0.26-0.06,0.65,0.08,0.76c1.46,1.13,0.06,1.3-0.57,1.56
				c-1.41,0.58-2.12,1.88-3.13,2.85c-0.47,0.45-0.91,0.95-1.38,1.41c-0.16,0.16-0.35,0.5-0.62,0.19c-0.21-0.24-0.05-0.47,0.2-0.64
				c1.06-0.7,1.41-2.08,2.61-2.68c0.32-0.16,0.5-0.6,0.71-0.93c0.16-0.26,0.35-0.62,0.1-0.84c-0.32-0.29-0.65-0.04-0.9,0.23
				c-1.44,1.56-2.88,3.13-4.31,4.69c-0.37,0.4-0.43,0.9-0.16,1.35c1.41,2.4,2.85,4.78,4.27,7.17c0.4,0.68,0.77,1.37,1.15,2.07
				c0.47,0.87,1.1,1.53,2.16,1.61l-0.04-0.05c0.87,1.26,0.02,2.63,0.24,3.93c0.49,0.1,0.58-0.54,0.94-0.49
				c0.64,0.53-0.22,1.9,1.33,1.89c6.23-0.05,12.46-0.02,18.69-0.03c0.45,0,1.21,0.14,1.21-0.43c0.01-0.66-0.75-0.33-1.14-0.33
				c-5.88-0.03-11.75-0.05-17.63-0.01c-0.97,0.01-1.33-0.22-1.27-1.24c0.08-1.36,0.02-2.72,0.02-4.08L113.85,34.03z"/>
			<path class="st2" d="M153.44,55.85c0.48-0.45,1.52-0.74,0.05-1.31c-0.84-0.32-1.08-1.71-1.59-2.63
				c-1.35-2.43-2.97-4.62-5.89-5.34c-0.88-0.22-1.78-0.35-2.87,0.06c0.79,0.55,1.91,0.17,2.38,1.29c-0.95,0.03-1.85,0.01-2.69,0.35
				c-0.36,0.14-0.56-0.02-0.63-0.42c-0.06-0.31,0.47-0.85-0.27-0.9c-0.48-0.03-0.82,0.32-1.03,0.72c-0.56,1.09,0.02,2.97,0.99,3.67
				c2.12,1.53,4.51,2.56,6.83,3.72c1.79,0.89,3.57,1.78,5.16,3.03c4.92,3.87,5.99,10.2,3.47,15.78c-1.11,2.47-2.77,4.41-4.91,6
				c-0.32,0.24-0.99,0.51-0.15,1.05c0.09,0.06-0.54,0.81-0.98,1.08c-3.01,1.85-6.24,2.71-9.77,2.06c-1.15-0.21-2.35-0.23-3.69-1
				c2.57,0.3,4.84,0.51,7.17-0.04c-0.77-0.47-1.57-0.28-2.32-0.34c-3.7-0.3-7-1.4-9.81-4c-2.95-2.72-3.95-6.26-2.67-9.94
				c1.11-3.17,3.59-4.58,6.75-4.94c1.57-0.18,3.14-0.05,4.62,0.71c1.99,1.01,2.98,3.21,2.29,5.34c-0.35,1.06-0.95,1.99-1.03,3.2
				c-0.08,1.23-2.08,1.78-3.39,1.07c0.4-0.5,1.45,0.08,1.52-1.02c-1.5,0.11-2.64-0.55-3.49-1.78c-0.24-0.35-0.72-0.9-1.01-0.53
				c-0.35,0.46-1.19,0.44-1.13,1.39c0.1,1.62,1.55,3.56,3.23,4.07c2.68,0.81,5.44,1.07,7.99-0.1c1.9-0.87,3.46-2.48,3.65-4.76
				c0.15-1.8-0.46-3.33-2.1-4.5c-2.4-1.72-5.03-2.94-7.61-4.31c-2.41-1.28-5.07-2.17-6.9-4.41c-2.12-2.61-2.7-5.58-2.02-8.77
				c1.32-6.24,8.3-8.58,13.79-7.42c1.14,0.24,2.33,0.4,3.4,0.94c0.26,0.13,0.69,0.33,0.86,0.07c0.96-1.44,2.41-0.65,3.63-0.83
				c0.51-0.08,0.92,0.09,1,0.75c0.27,2.28,1.13,4.41,1.69,6.61c0.35,1.38,0.79,2.77,0.53,4.23c-0.07,0.42,1.02,0.22,0.33,1.04
				C155.89,55.93,154.85,56.08,153.44,55.85z"/>
			<path class="st2" d="M49.07,55.47c-0.65-0.01-0.94-0.38-1.16-1.05c-0.81-2.47-2.08-4.69-4.09-6.4c-1.44-1.23-3.14-1.21-4.97-1.01
				c0.69,0.67,1.73,0.61,2.49,1.54c-2.23-0.17-3.93,0.61-5.37,2.07c-0.07-0.09-0.13-0.18-0.2-0.27c0.15-0.27,0.29-0.55,0.46-0.8
				c0.17-0.25,0.41-0.45,0.58-0.7c0.18-0.24,0.41-0.55,0.09-0.8c-0.23-0.18-0.5,0.05-0.7,0.22c-1.39,1.21-2.41,2.73-2.96,4.44
				c-1.18,3.66-1.79,7.45-1.34,11.3c0.35,2.95,0.76,5.92,2.25,8.58c2.09,3.72,6.85,5.07,10.54,1.94c3.35-2.84,4.04-6.05,1.89-9.68
				c-1.07-1.81-2.74-1.77-3.79,0.1c-0.55,0.97-0.49,2.22-1.46,3.01c-0.24,0.2-0.01,0.52,0.33,0.44c0.37-0.08,0.72-0.27,1.19-0.45
				c0.04,1.02-0.66,1.38-1.34,1.72c-1.44,0.73-2.46,0.7-3.52-0.06c0.47-0.44,1.54,0.13,1.56-0.49c0.03-0.84-1.02-0.46-1.56-0.71
				c-2.65-1.23-3.45-5.25-1.5-7.71c1.4-1.76,3.14-2.98,5.39-3.37c2.67-0.46,5.02,0.32,7,2.11c4.13,3.76,4.84,8.38,3.18,13.5
				c-0.74,2.27-2.14,4.13-3.98,5.67c-0.28,0.24-0.98,0.48-0.55,0.96c0.37,0.42,0.83-0.07,1.07-0.41c0.48-0.69,1.38-0.77,1.88-1.4
				c0.1-0.13,0.29-0.26,0.44-0.1c0.17,0.18,0.13,0.46-0.03,0.6c-2.13,1.82-4.02,3.89-6.94,4.66c-3.14,0.83-6.2,0.99-9.34,0.31
				c-0.12-0.03-0.25-0.08-0.35-0.06c-0.23,0.06-0.11,0.72-0.59,0.36c-0.07-0.05-0.09-0.25-0.06-0.37c0.12-0.54,0.57-0.28,0.86-0.29
				c1.63-0.03,3.25-0.01,4.88-0.02c0.55,0,1.13,0.06,1.65-0.5c-2.34-0.19-4.61-0.08-6.81-0.78c-4.73-1.51-8.13-4.46-10.47-8.84
				c-2.33-4.36-2.38-8.94-2.15-13.69c0.16-3.24,1.47-6.01,2.81-8.78c0.64-1.32,1.56-2.62,2.77-3.59c1-0.81,1.82-1.79,2.92-2.54
				c3.4-2.33,7.06-2.63,10.92-1.87c0.85,0.17,1.75,0.16,2.52,0.66c0.26,0.17,0.66,0.19,0.87-0.05c1.02-1.21,2.39-0.54,3.59-0.71
				c0.42-0.06,0.58,0.19,0.7,0.6c0.97,3.45,2.13,6.84,2.81,10.36c0.06,0.32,0.26,0.7-0.03,1c-0.41,0.42-0.4,0.6,0.22,0.73
				c0.68,0.14,0.55,0.81,0.19,0.94c-0.9,0.32-1.7,0.97-2.71,0.91c-0.32-0.02-0.81,0.15-0.9-0.3C48.14,55.84,49.01,56.03,49.07,55.47
				z"/>
			<path class="st2" d="M97.13,69.63c1.03-0.84,2.16-0.47,3.26-0.43c1.27,0.05,2.54,0.14,3.81,0.2c0.41,0.02,0.9-0.04,0.87-0.55
				c-0.02-0.42-0.53-0.38-0.84-0.4c-2.41-0.15-4.83-0.3-7.24-0.38c-0.89-0.03-1.3-0.35-1.25-1.25c0.03-0.53,0.01-1.06-0.02-1.58
				c-0.05-0.89,0.18-1.47,1.24-1.33c1.02,0.14,1.16-0.56,1.17-1.32c0.01-2.74,0-5.49,0-8.46c-1.39,1.24-1.94,2.73-2.12,4.21
				c-0.36,3.08-1.6,5.9-2.26,8.88c-0.05,0.21-0.17,0.41,0.06,0.68c0.57-0.04,0.58-0.71,0.94-1.07c0.28,2.56-1.37,3.46-4.29,2.42
				c0.14-0.06,0.26-0.1,0.37-0.16c0.57-0.27,1.66-0.13,1.64-0.77c-0.04-0.89-0.98-0.19-1.51-0.32c-0.81-0.2-0.95-0.79-1.12-1.45
				c-0.82-3.18-1.33-6.43-2.39-9.54c-0.28-0.82-0.52-1.71-1.57-2.04c0,2.41,0.02,4.74-0.01,7.07c-0.01,1.05,0.28,1.78,1.46,1.89
				c0.4,0.04,1,0.31,0.58,0.69c-1.08,0.96-0.48,2.07-0.64,3.17c1.08-0.02,1.31-0.8,1.63-1.67c0.14,0.58,0.25,0.97,0.33,1.38
				c0.36,1.84,0.37,1.91-1.5,2.04c-2.47,0.17-4.95,0.23-7.43,0.32c-0.42,0.02-0.89,0.1-1.21-0.32c2.54-0.79,5.2-0.56,7.8-0.98
				c-1.49-0.17-2.97-0.43-4.44-0.12c-0.79,0.17-1.56,0.13-2.34,0.13c-0.82,0-0.85-0.76-0.77-1.23c0.18-1.06-0.81-2.58,0.44-3.13
				c2.16-0.95,2.15-0.77,2.12-3.2c-0.05-3.76,0.05-7.53,0.07-11.29c0-0.53-0.02-1.06-0.1-1.58c-0.1-0.62-0.38-1.02-1.15-0.92
				c-0.95,0.12-1.4-0.34-1.43-1.36c-0.09-2.88-0.12-2.88,2.77-2.88c1.98,0,3.96,0.06,5.94-0.03c0.94-0.04,1.3,0.33,1.53,1.17
				c0.93,3.41,1.74,6.84,2.49,10.3c0.09,0.4,0.1,1.11,0.76,1.04c0.51-0.05,0.58-0.67,0.61-1.06c0.27-3.3,1.73-6.29,2.38-9.49
				c0.39-1.94,0.46-1.93,2.51-1.93c2.33,0,4.66,0.02,7-0.01c0.81-0.01,1.12,0.28,1.06,1.08c-0.06,0.74-0.05,1.49-0.08,2.24
				c-0.02,0.4-0.07,0.86,0.37,1.04c0.46,0.18,0.62,0.36,0.41,0.86c-0.26,0.61-0.8,0.65-1.3,0.7c-0.41,0.05-0.75-0.15-0.82-0.66
				c-0.04-0.3,0.12-0.82-0.44-0.78c-0.49,0.03-0.57,0.51-0.62,0.89c-0.07,0.61-0.1,1.23-0.1,1.84c0,3.87,0.01,7.74,0.03,11.61
				c0.01,1.22-0.18,2.6,1.73,2.59c0.49,0,0.42,0.43,0.21,0.66c-0.63,0.7-0.54,1.53-0.58,2.36c-0.05,0.87-0.04,1.56,1.15,1.4
				c0.35-0.05,0.75,0.06,0.75,0.52c0,0.42-0.35,0.58-0.71,0.62c-0.52,0.06-1.05,0.14-1.57,0.12
				C102.22,69.94,99.68,69.78,97.13,69.63z"/>
			<path class="st2" d="M74.42,16.23c-1.29,0.07-1.41,1.26-1.41,1.97c0.01,4.73-0.5,9.48,0.3,14.2c0.25,1.46,1.37,1.84,2.43,2.24
				c1.98,0.74,4.04-0.36,4.67-2.36c0.17-0.54,0.31-1.11,0.32-1.68c0.05-4.09,0.38-8.17,0.09-12.26c-0.09-1.25-0.46-2.19-1.89-2.37
				c-0.97-0.13-0.68-0.93-0.69-1.54c-0.02-1.84-0.01-1.85,1.84-1.86c1.93-0.01,3.85-0.01,5.78,0c0.37,0,1-0.12,0.98,0.38
				c-0.05,1.29,0.49,2.54,0.21,3.84c-0.13,0.6-0.32,1.12-0.98,0.8c-0.64-0.31-0.19-0.81,0.05-1.22c0.04-0.06,0.04-0.15,0.05-0.22
				c-1.28,0-1.62,0.26-1.63,1.55c-0.03,3.96-0.08,7.91-0.01,11.87c0.06,3.13-0.45,6.01-2.93,8.32c1.2,0.44,1.72-0.72,2.59-0.95
				c-1.37,3.83-9.15,4.97-11.91,3.38c1.9-0.39,3.87,0.15,5.6-0.83c-1.76-0.18-3.52,0.06-5.24-0.43c-1.68-0.48-3.37-0.99-4.63-2.24
				c-1.33-1.32-1.86-3.08-1.93-4.91c-0.1-2.9-0.06-5.8-0.07-8.7c0-1.41,0.06-2.83,0.06-4.24c0-1.96-0.46-2.41-2.41-2.37
				c-0.31,0.01-0.61,0-0.9,0c-0.21,0.6,0.58,0.48,0.59,0.97c-0.4,0.23-0.92,0.22-1.17-0.06c-0.8-0.9-1.19,0.08-1.57,0.37
				c-0.41,0.31-0.09,0.8,0.38,0.8c1.72,0.03,2.88,0.75,3.19,2.49c0.27,1.52-0.11,2.87-1.44,3.82c-0.05,0.03-0.04,0.15-0.06,0.26
				c0.66,0.34,1.16-0.01,1.65-0.38c0.09,1.78-0.87,2.2-4.51,1.94c0.62-0.29,1.25-0.35,1.71-0.93c-2.08-0.35-3.89-1.04-4.89-3.03
				c-2.28-4.53,1.16-10.21,6.29-10.3c3.72-0.06,7.44,0.03,11.16-0.02c1.16-0.02,1.63,0.37,1.46,1.53c-0.07,0.52-0.05,1.05-0.1,1.57
				c-0.02,0.23-0.07,0.38,0.2,0.52c0.27,0.14,1.12-0.51,0.79,0.45c-0.24,0.69-0.84,1.17-1.65,1.05c-0.86-0.13-0.3-0.72-0.3-1.13
				C74.52,16.45,74.47,16.37,74.42,16.23z"/>
			<path class="st2" d="M109.62,70.2c2.9-0.22,5.59,0.44,8.3,0.94c1.77,0.32,3.55,0.59,5.36,0.41c0.65-0.06,1.27-0.19,1.79-0.72
				c-2.04-0.1-4.04-0.38-6.03-0.67c-2.91-0.43-5.83-0.76-8.74-1.1c-0.7-0.08-1-0.33-0.92-1.06c0.07-0.61,0.07-1.24,0-1.84
				c-0.11-1.04,0.13-1.61,1.33-1.36c0.51,0.11,0.83-0.16,0.86-0.72c0.01-0.26,0.12-0.52,0.13-0.78c0.15-5.06,0-10.11-0.14-15.16
				c-0.02-0.85-0.62-0.86-1.18-0.88c-0.76-0.04-1.01-0.33-1.01-1.13c-0.01-3.12-0.05-3.12,3.13-3.12c3.12,0,6.25,0.04,9.37-0.01
				c1.94-0.03,3.65,0.69,5.14,1.76c2.27,1.63,2.9,6.59,1.29,9.09c-0.47,0.72-0.77,1.57-1.49,2.12c-0.44,0.34-0.11,0.62,0.1,0.87
				c0.61,0.74,1.36,1.39,1.82,2.21c0.98,1.72,1.28,3.64,1.04,5.58c-0.13,1.01-0.13,2.08-0.7,3.01c-0.52,0.85-1.08,1.66-2.04,2.23
				c0.64,0.41,0.98-0.37,1.42-0.04c-0.46,1.69-0.89,2.08-3,2.2c-3.25,0.19-6.48-0.21-9.7-0.62c-1.74-0.22-3.47-0.48-5.21-0.72
				C110.25,70.64,109.93,70.66,109.62,70.2z M120.85,60.13c-1.09-0.02-2.12,0.29-2.45-0.98c-0.08-0.3-0.08-0.68-0.5-0.6
				c-0.36,0.07-0.37,0.44-0.37,0.76c0,1.54,0,3.08,0.02,4.61c0.01,0.43,0.08,0.92,0.66,0.98c1.09,0.1,2.19,0.28,3.27,0.23
				c1.51-0.07,2.29-0.97,2.45-2.54c0.27-2.66-2.01-4.79-5.16-4.03C118.94,59.59,120.05,59.43,120.85,60.13z M120.84,49.68
				c-0.89,0.05-1.74,0.27-2.39-0.51c-0.2-0.24-0.05-0.85-0.52-0.75c-0.4,0.09-0.41,0.61-0.42,1.01c0,0.35-0.01,0.7-0.02,1.05
				c-0.05,3.55-0.25,3.3,3.37,3.34c0.7,0.01,1.41-0.05,1.79-0.61c0.67-1,1.04-2.15,0.61-3.36c-0.38-1.08-1.37-1.44-2.38-1.59
				c-0.65-0.1-1.84-0.34-1.9,0.16c-0.12,0.92,0.97,0.82,1.66,0.97C120.7,49.4,120.74,49.51,120.84,49.68z"/>
			<path class="st2" d="M65.14,70.7c-2.37,0.02-4.46-0.07-6.45-1.13c-1.35-0.73-2.41-1.79-2.99-2.98
				c-2.76-5.69-2.87-11.44-0.34-17.36c2.17-5.09,7.6-7.67,12.17-6.46c4.17,1.11,6.83,3.8,8.14,7.99c1.17,3.73,1,7.4-0.2,10.98
				c-0.73,2.18-1.84,4.32-3.93,5.68c-0.71,0.46-1.13,1.27-1.9,1.7c1.61,0.08,2.25-1.92,3.89-1.78c-0.77,2.64-7.08,5.67-12.37,4.57
				C62.51,71.38,63.88,71.6,65.14,70.7z M63.39,48.44c-0.78,0.14-1.2,0.59-1.56,1.19c-2.34,3.93-2.3,8.11-1.22,12.35
				c0.28,1.09,0.89,2.21,1.75,2.86c2.05,1.54,5.83,0.02,6.64-2.43c1.34-4.08,1.5-8.13,0.02-12.22c-0.55-1.53-2.86-2.82-4.52-2.33
				c0.15,0.69,1.18,0.62,1.23,1.47c-1.14-0.26-1.9,0.44-2.67,1.08C62.6,49.62,63.61,49.21,63.39,48.44z"/>
			<path class="st2" d="M59.42,39.31c-3.55,0-7.01,0-10.48,0c-2.02,0-4.05-0.05-6.07-0.01c-0.93,0.02-1.27-0.38-1.25-1.25
				c0.02-0.62,0.04-1.23-0.01-1.85c-0.1-1.3-0.01-2.41,1.76-2.29c0.57,0.04,0.86-0.36,0.91-0.91c0.04-0.44,0.11-0.87,0.11-1.31
				c0.01-4.71,0.01-9.42,0.01-14.12c0-0.88-0.09-1.75-0.12-2.62c-0.03-1.22-0.43-1.79-1.71-1.64c-0.74,0.09-0.93-0.36-0.97-1.06
				c-0.19-3.88-0.21-3.88,3.7-3.88c2.42,0,4.84,0.05,7.26-0.02c1.12-0.03,1.5,0.37,1.4,1.46c-0.08,0.87-0.02,1.76,0,2.64
				c0.01,0.33-0.11,0.72,0.3,0.93c0.33,0.18,0.88,0.32,0.51,0.82c-0.27,0.37-0.37,1.06-1.09,0.92c-0.49-0.1-1.14,0.32-1.41-0.52
				c-0.11-0.35-0.09-1.05-0.72-0.9c-0.64,0.15-0.56,0.8-0.56,1.33c0,5.72,0.02,11.44-0.02,17.16c-0.01,1.07,0.39,1.34,1.39,1.34
				c2.64-0.01,4.52-1.15,5.71-3.48c0.88-1.71,0.89-1.7,2.75-1.24c0.34,0.08,0.69,0.17,1.04,0.18c0.95,0.03,1.03,0.44,0.81,1.29
				c-0.78,2.99-1.45,6.02-2.21,9.02c-0.18,0.7,0.36,1.68-0.32,2.02c-0.58,0.3-1.46,0.01-2.21-0.02c-3.64-0.17-7.29-0.03-10.91-0.63
				c-0.6-0.1-1.24-0.09-1.84-0.02c-1.39,0.16-2.74,0.18-3.98-0.61c-0.11-0.07-0.22-0.15-0.33-0.23c-0.1,0.18-0.06,0.36,0.09,0.46
				c0.14,0.09,0.33,0.18,0.48,0.16c5.46-0.75,10.94-0.2,16.41-0.34c0.26-0.01,0.53,0,0.79-0.05C58.97,39.99,59.27,39.9,59.42,39.31z
				"/>
			<path class="st2" d="M111.52,34.83c0.04-0.74-0.55-1.15-0.86-1.7c-1.06-1.85-1.81-3.88-3.05-5.63c-0.34-0.48-0.32-0.99,0.1-1.44
				c0.92-1.01,1.57-2.4,3.33-2.12c0.56,0.09,0.82-0.41,1.1-0.81c0.49-0.71,1.01-1.4,1.72-2.38c0,4.64,0,8.96,0,13.28
				c0,0,0.04-0.05,0.04-0.05c-0.74,0.44-1.27,1.55-2.41,0.8L111.52,34.83z"/>
			<path class="st2" d="M106.44,63.44c0.61-0.31,1.2,0.06,1.61-0.38c-0.05-0.36-0.32-0.26-0.5-0.27c-2.06-0.09-2.06-0.09-2.07-2.1
				c-0.01-2.07,0-4.13-0.05-6.2c-0.02-0.97,0.28-1.43,1.34-1.45c2.54-0.05,2.54-0.1,2.54,2.45c0,2.33-0.08,4.66,0.03,6.99
				c0.04,0.88-0.22,1.21-0.96,1.55C107.52,64.45,107.03,64.11,106.44,63.44z"/>
			<path class="st2" d="M75.31,27.79c0-1.27,0-2.55,0-3.82c0-0.7,0.32-0.96,1.06-0.98c2.89-0.08,2.92-0.11,2.83,2.75
				c-0.07,2.37-0.2,4.74-0.31,7.1c-0.01,0.33-0.3,0.44-0.51,0.54c-1.14,0.56-3.08-0.61-3.15-1.9c-0.04-0.61-0.02-1.23-0.02-1.85
				c0-0.62,0-1.23,0-1.85C75.23,27.79,75.27,27.79,75.31,27.79z"/>
			<path class="st2" d="M86.42,22.98c0.58,0.41,0.69,1.03,1.22,0.9c1.54-0.36,1.41,0.67,1.45,1.64c0.11,2.57-0.24,5.13,0.06,7.71
				c0.07,0.59-0.9,0.84-1.44,1.06c-0.81,0.34-1.06,0.8-1.01,1.67c0.08,1.58,0.01,3.16,0.01,4.74c0,0.42-0.05,0.79-0.51,0.94
				c-0.35,0.12-0.56-0.13-0.81-0.31c-0.45-0.32-0.26-0.66-0.08-1.03c1-1.98,0.89-4.12,0.97-6.26C86.4,30.45,86.07,26.83,86.42,22.98
				z"/>
			<path class="st2" d="M43.89,56.17c-1.53-0.21-2.95,0.12-4.29,0.84c-0.27,0.15-0.55,0.26-0.83,0.39
				c-0.47,0.23-0.98,0.25-1.36-0.07c-0.38-0.33,0.02-0.74,0.12-1.08c0.51-1.83,1.78-3.01,3.55-3.47c1.93-0.5,3.44,0.51,4.73,1.84
				c0.33,0.34,0.76,0.83,0.57,1.24c-0.19,0.43-0.83,0.39-1.32,0.36C44.67,56.21,44.28,56.19,43.89,56.17z"/>
			<path class="st2" d="M80.07,57.68c0,1.01-0.04,2.03,0.02,3.03c0.02,0.36-0.48,1.08,0.51,1.08c0.15,0-0.4,1.45-0.68,1.5
				c-0.98,0.2-2.45-1.38-1.91-2.22c0.84-1.3,0.44-2.62,0.42-3.93c-0.01-1.05-0.26-2.09-0.37-3.14c-0.05-0.43-0.32-1.08,0.55-0.98
				c0.57,0.07,1.44-0.27,1.46,0.82C80.08,55.13,80.07,56.41,80.07,57.68z"/>
			<path class="st2" d="M54.48,21.97c0.88,2.37,1.05,4.61,1.98,6.62c0.18,0.39,0.08,0.77-0.18,1.11c-0.18,0.24-0.53,0.58-0.47,0.75
				c0.22,0.61,0.02,0.94-0.55,0.91c-0.53-0.03-0.86-0.31-0.91-1.02C54.19,27.66,54.16,25,54.48,21.97z"/>
			<path class="st2" d="M53.15,50.48c-0.49-1.49-0.9-2.72-1.3-3.95c-0.25-0.78-0.12-1.3,0.85-1.23c0.09,0.01,0.18-0.02,0.26-0.01
				c0.8,0.09,1.92-0.37,2.33,0.31c0.34,0.56-0.69,1.18-1.02,1.82c-0.27,0.52-0.84,0.96-0.32,1.75
				C54.24,49.6,53.51,49.86,53.15,50.48z"/>
			<path class="st2" d="M36.46,70.66c1.66,2.14,3.44,3.8,6.45,2.76c-0.68,0.61-1.2,1.39-2.17,1.48c-0.68,0.06-1.5,0.49-1.78-0.63
				c-0.02-0.09-0.21-0.18-0.32-0.19C36.64,73.79,36.69,72.15,36.46,70.66z"/>
			<path class="st2" d="M76.61,45.45c0.86-0.24,1.12,0.27,1.11,1.13c-0.01,0.78,0,1.57,0.06,2.35c0.04,0.51,0.03,1.04,0.32,1.51
				c0.15,0.25,0.77,0.31,0.38,0.77c-0.28,0.33-0.81,0.37-1.08,0.13c-0.31-0.27-0.66-1.07-0.6-1.11c0.95-0.7,0.08-1.23-0.15-1.76
				c-0.25-0.59-0.7-1.1-0.99-1.69C75.1,45.64,75.22,45.46,76.61,45.45z"/>
			<path class="st2" d="M146.06,73.82c-0.05,0.22-0.09,0.7-0.26,1.13c-0.18,0.47-0.68,0.84-1.1,0.75c-0.58-0.11-1.22-0.41-1.61-0.84
				c-0.22-0.25,0.31-0.72,0.6-1.04c0.24-0.25,0.4-0.57,0.64-0.82c0.3-0.32,0.44-1.01,0.99-0.84
				C145.9,72.36,146.09,72.96,146.06,73.82z"/>
			<path class="st2" d="M93.53,46.17c0,0.77-0.24,1.41,0.03,2.13c0.21,0.55-0.29,1.07-0.77,1.39c-0.45,0.3-0.56-0.25-0.82-0.41
				c-0.09-0.05-0.18-0.29-0.17-0.31c1.1-0.83,0.08-1.7,0.04-2.54c-0.01-0.33-0.26-0.71,0.13-0.95c0.39-0.25,0.85-0.23,1.27-0.12
				C93.72,45.5,93.51,45.94,93.53,46.17z"/>
			<path class="st2" d="M65.14,37.19c0.32,0.98,0.54,1.88,0.93,2.7c0.25,0.54,0.19,0.9-0.17,1.29c-0.19,0.21-0.46,0.41-0.66,0.16
				c-0.3-0.39-1.03-0.52-0.91-1.17C64.52,39.22,64.34,38.16,65.14,37.19z"/>
			<path class="st2" d="M131.3,46.61c-0.29,0.48-0.7,1.03-1.2,0.99c-0.61-0.05-0.39-0.52-0.13-0.93c0.24-0.38-0.6-0.88,0.02-1.26
				c0.23-0.13,0.64-0.13,0.88-0.02C131.36,45.63,130.87,46.24,131.3,46.61z"/>
			<path class="st2" d="M81.09,10.6c0.18,0,0.35-0.01,0.53,0c0.34,0.02,0.85-0.02,0.84,0.41c-0.01,0.49-0.53,0.27-0.84,0.31
				c-0.48,0.06-0.96,0.1-1.44,0.13c-0.29,0.01-0.71,0.13-0.74-0.29c-0.03-0.44,0.37-0.53,0.73-0.55
				C80.47,10.58,80.78,10.6,81.09,10.6z"/>
			<path class="st2" d="M74.34,66.78c-0.09,0.29-0.25,0.48-0.53,0.51c-0.07,0.01-0.22-0.16-0.2-0.22c0.06-0.26,0.24-0.45,0.51-0.48
				C74.19,66.57,74.27,66.71,74.34,66.78z"/>
			<path class="st2" d="M137.71,19.04c0.03,0,0.07-0.01,0.09,0c0.02,0.02,0.05,0.07,0.04,0.09c-0.06,0.12-0.13,0.12-0.18,0
				C137.65,19.11,137.69,19.07,137.71,19.04z"/>
			<path class="st2" d="M74.42,66.3c0.03,0.03,0.06,0.06,0.09,0.08c-0.05,0.03-0.1,0.06-0.16,0.07c-0.02,0-0.05-0.05-0.08-0.07
				C74.31,66.35,74.37,66.33,74.42,66.3z"/>
			<path class="st2" d="M128.61,69.51c-0.03,0.05-0.06,0.1-0.09,0.15c-0.03-0.03-0.08-0.06-0.08-0.08c0.01-0.06,0.05-0.11,0.08-0.16
				C128.55,69.45,128.58,69.48,128.61,69.51z"/>
			<path class="st1" d="M111.48,34.78c1.14,0.75,1.66-0.36,2.41-0.8c0,1.36,0.06,2.72-0.02,4.08c-0.06,1.01,0.3,1.24,1.27,1.24
				c5.88-0.04,11.75-0.02,17.63,0.01c0.39,0,1.14-0.32,1.14,0.33c-0.01,0.58-0.76,0.43-1.21,0.43c-6.23,0.01-12.46-0.02-18.69,0.03
				c-1.55,0.01-0.69-1.36-1.33-1.89c-0.36-0.05-0.46,0.59-0.94,0.49C111.5,37.42,112.35,36.04,111.48,34.78z"/>
			<path class="st1" d="M120.85,60.13c-0.8-0.7-1.9-0.54-2.09-1.58c3.14-0.75,5.43,1.37,5.16,4.04c-0.16,1.57-0.93,2.47-2.45,2.54
				c-1.09,0.05-2.18-0.13-3.27-0.23c-0.58-0.06-0.65-0.54-0.66-0.98c-0.03-1.54-0.02-3.08-0.02-4.61c0-0.31,0.01-0.69,0.37-0.76
				c0.42-0.08,0.42,0.3,0.5,0.6C118.73,60.42,119.75,60.11,120.85,60.13z"/>
			<path class="st1" d="M120.84,49.68c-0.11-0.17-0.14-0.28-0.19-0.29c-0.69-0.15-1.79-0.05-1.66-0.97c0.07-0.5,1.25-0.26,1.9-0.16
				c1.01,0.15,2,0.51,2.38,1.59c0.43,1.21,0.06,2.36-0.61,3.36c-0.38,0.56-1.09,0.62-1.79,0.61c-3.62-0.04-3.41,0.21-3.37-3.34
				c0-0.35,0.01-0.7,0.02-1.05c0-0.4,0.02-0.92,0.42-1.01c0.47-0.11,0.33,0.51,0.52,0.75C119.1,49.95,119.95,49.73,120.84,49.68z"/>
			<path class="st1" d="M63.39,48.44c0.22,0.77-0.79,1.18-0.34,1.96c0.78-0.64,1.54-1.34,2.67-1.08c-0.05-0.85-1.08-0.78-1.23-1.47
				c1.66-0.49,3.97,0.79,4.52,2.33c1.48,4.09,1.32,8.14-0.02,12.22c-0.81,2.46-4.58,3.97-6.64,2.43c-0.86-0.64-1.47-1.77-1.75-2.86
				c-1.08-4.25-1.12-8.42,1.22-12.35C62.18,49.03,62.6,48.58,63.39,48.44z M68.44,57.03c0.02-2.17-0.28-2.87-1.2-3.21
				c-1.64-0.6-2.7-0.35-3.17,1.32c-0.81,2.91-3.26,5.99,0.35,8.84c0.4,0.32,0.6,0.49,1,0.32c0.57-0.24,1.47-0.41,1.33-1.17
				c-0.12-0.68,0.17-1.11,0.43-1.55C68.1,60.04,68.37,58.34,68.44,57.03z"/>
			<path class="st2" d="M68.44,57.03c-0.07,1.31-0.34,3.01-1.27,4.56c-0.26,0.44-0.55,0.87-0.43,1.55c0.14,0.76-0.75,0.92-1.33,1.17
				c-0.4,0.17-0.59,0-1-0.32c-3.6-2.85-1.16-5.93-0.35-8.84c0.47-1.68,1.52-1.92,3.17-1.32C68.16,54.16,68.46,54.86,68.44,57.03z"/>
		</g>
	</g>
</g>
<g>
	<g>
		<rect x="-528.35" y="-445.5" class="st0" width="1237" height="95"/>
		<g>
			<rect x="131.1" y="-406.92" style="fill:none;" width="132.28" height="16.86"/>
			
				<text transform="matrix(1 0 0 1 136.2418 -394.3237)" class="st2" style="font-family:'PTSans-Bold'; font-size:18px; letter-spacing:3;">BIOGRAPHY</text>
			<rect x="346.37" y="-406.92" style="fill:none;" width="132.28" height="16.86"/>
			
				<text transform="matrix(1 0 0 1 366.0865 -394.3237)" class="st2" style="font-family:'PTSans-Bold'; font-size:18px; letter-spacing:3;">GALLERY</text>
			<rect x="554.37" y="-406.92" style="fill:none;" width="132.28" height="16.86"/>
			
				<text transform="matrix(1 0 0 1 588.0992 -394.3237)" class="st2" style="font-family:'PTSans-Bold'; font-size:18px; letter-spacing:3;">MUSIC</text>
		</g>
	</g>
	<g>
		<rect x="-528.35" y="480.5" class="st0" width="1237" height="58"/>
		<g>
			<rect x="-354.67" y="502.72" style="fill:none;" width="425.32" height="17.84"/>
			<text transform="matrix(1 0 0 1 -354.6747 511.8245)"><tspan x="0" y="0" class="st2" style="font-family:'PTSans-Bold'; font-size:13px; letter-spacing:2;">©SONY MUSIC ENTERTAINMENT. ALL RIGHTS RE</tspan><tspan x="370.87" y="0" class="st2" style="font-family:'PTSans-Bold'; font-size:13px; letter-spacing:2;">-</tspan></text>
			<rect x="111.42" y="502.72" style="fill:none;" width="385.23" height="15.73"/>
			
				<text transform="matrix(1 0 0 1 111.4185 511.8245)" class="st2" style="font-family:'PTSans-Bold'; font-size:13px; letter-spacing:2;">CREATED BY ALLISON HUNT DMDII ISU 2019</text>
		</g>
	</g>
</g>
<g>
	<g>
		<rect x="-528.35" y="-445.5" class="st0" width="1237" height="95"/>
		<g>
			<rect x="131.1" y="-406.92" style="fill:none;" width="132.28" height="16.86"/>
			
				<text transform="matrix(1 0 0 1 136.2418 -394.3237)" class="st2" style="font-family:'PTSans-Bold'; font-size:18px; letter-spacing:3;">BIOGRAPHY</text>
			<rect x="346.37" y="-406.92" style="fill:none;" width="132.28" height="16.86"/>
			
				<text transform="matrix(1 0 0 1 366.0865 -394.3237)" class="st2" style="font-family:'PTSans-Bold'; font-size:18px; letter-spacing:3;">GALLERY</text>
			<rect x="554.37" y="-406.92" style="fill:none;" width="132.28" height="16.86"/>
			
				<text transform="matrix(1 0 0 1 588.0992 -394.3237)" class="st2" style="font-family:'PTSans-Bold'; font-size:18px; letter-spacing:3;">MUSIC</text>
		</g>
	</g>
	<g>
		<rect x="-528.35" y="480.5" class="st0" width="1237" height="58"/>
		<g>
			<rect x="-354.67" y="502.72" style="fill:none;" width="425.32" height="17.84"/>
			<text transform="matrix(1 0 0 1 -354.6747 511.8245)"><tspan x="0" y="0" class="st2" style="font-family:'PTSans-Bold'; font-size:13px; letter-spacing:2;">©SONY MUSIC ENTERTAINMENT. ALL RIGHTS RE</tspan><tspan x="370.87" y="0" class="st2" style="font-family:'PTSans-Bold'; font-size:13px; letter-spacing:2;">-</tspan></text>
			<rect x="111.42" y="502.72" style="fill:none;" width="385.23" height="15.73"/>
			
				<text transform="matrix(1 0 0 1 111.4185 511.8245)" class="st2" style="font-family:'PTSans-Bold'; font-size:13px; letter-spacing:2;">CREATED BY ALLISON HUNT DMDII ISU 2019</text>
		</g>
	</g>
</g>
</svg>
